<?xml version="1.0" encoding="UTF-8" standalone="no"?>
<!-- Created with Inkscape (http://www.inkscape.org/) -->
<svg
   xmlns:dc="http://purl.org/dc/elements/1.1/"
   xmlns:cc="http://creativecommons.org/ns#"
   xmlns:rdf="http://www.w3.org/1999/02/22-rdf-syntax-ns#"
   xmlns:svg="http://www.w3.org/2000/svg"
   xmlns="http://www.w3.org/2000/svg"
   xmlns:sodipodi="http://sodipodi.sourceforge.net/DTD/sodipodi-0.dtd"
   xmlns:inkscape="http://www.inkscape.org/namespaces/inkscape"
   width="786.83734"
   height="373.43527"
   id="svg2"
   sodipodi:version="0.32"
   inkscape:version="0.46"
   sodipodi:docname="Crocodile01.svg"
   inkscape:output_extension="org.inkscape.output.svg.inkscape"
   version="1.0">
  <defs
     id="defs4">
    <inkscape:perspective
       sodipodi:type="inkscape:persp3d"
       inkscape:vp_x="0 : 526.18109 : 1"
       inkscape:vp_y="0 : 1000 : 0"
       inkscape:vp_z="744.09448 : 526.18109 : 1"
       inkscape:persp3d-origin="372.04724 : 350.78739 : 1"
       id="perspective10" />
  </defs>
  <sodipodi:namedview
     id="base"
     pagecolor="#ffffff"
     bordercolor="#666666"
     borderopacity="1.0"
     gridtolerance="10000"
     guidetolerance="10"
     objecttolerance="10"
     inkscape:pageopacity="0.0"
     inkscape:pageshadow="2"
     inkscape:zoom="0.7"
     inkscape:cx="212.05198"
     inkscape:cy="285.45599"
     inkscape:document-units="px"
     inkscape:current-layer="layer1"
     showgrid="false"
     inkscape:window-width="1280"
     inkscape:window-height="752"
     inkscape:window-x="0"
     inkscape:window-y="0" />
  <metadata
     id="metadata7">
    <rdf:RDF>
      <cc:Work
         rdf:about="">
        <dc:format>image/svg+xml</dc:format>
        <dc:type
           rdf:resource="http://purl.org/dc/dcmitype/StillImage" />
      </cc:Work>
    </rdf:RDF>
  </metadata>
  <g
     inkscape:label="Layer 1"
     inkscape:groupmode="layer"
     id="layer1"
     transform="translate(-190.07847,-291.38094)">
    <path
       style="fill:#379728;fill-rule:evenodd;stroke:none;stroke-width:1.04123402000000009px;stroke-linecap:butt;stroke-linejoin:miter;stroke-opacity:1;fill-opacity:1"
       d="M 206.84917,411.14991 C 206.84917,411.14991 198.05436,346.24258 250.82323,359.82783 C 303.59209,373.4131 412.06144,420.20675 412.06144,420.20675 C 412.06144,420.20675 708.15344,411.14991 738.93528,426.24465 C 769.71711,441.33937 976.39519,291.90156 976.39519,291.90156 C 976.39519,291.90156 848.87042,471.52883 790.23834,509.26566 C 731.60627,547.00247 716.94824,649.64663 716.94824,649.64663 C 716.94824,649.64663 686.1664,675.30766 672.97419,658.70347 C 659.78197,642.09926 689.09801,543.98353 689.09801,543.98353 C 689.09801,543.98353 475.09092,566.62562 435.51427,545.493 C 395.93762,524.36038 384.2112,639.08032 368.08739,646.62768 C 351.96356,654.17504 321.18172,667.7603 309.45531,645.1182 C 297.72889,622.47611 398.86923,539.4551 375.41639,533.41722 C 351.96356,527.37932 208.31497,550.02141 202.45176,531.90775 C 196.58856,513.79407 178.99893,476.05724 202.45176,482.09514 C 225.90459,488.13304 354.89516,500.20882 335.83974,483.60461 C 316.78432,467.00041 206.84917,411.14991 206.84917,411.14991 z"
       id="path2381" />
  </g>
</svg>
