<?xml version="1.0" encoding="UTF-8" standalone="no"?>
<!-- Created with Inkscape (http://www.inkscape.org/) -->
<svg
   xmlns:dc="http://purl.org/dc/elements/1.1/"
   xmlns:cc="http://creativecommons.org/ns#"
   xmlns:rdf="http://www.w3.org/1999/02/22-rdf-syntax-ns#"
   xmlns:svg="http://www.w3.org/2000/svg"
   xmlns="http://www.w3.org/2000/svg"
   xmlns:sodipodi="http://sodipodi.sourceforge.net/DTD/sodipodi-0.dtd"
   xmlns:inkscape="http://www.inkscape.org/namespaces/inkscape"
   width="552.06506"
   height="810.63086"
   id="svg2"
   sodipodi:version="0.32"
   inkscape:version="0.46"
   sodipodi:docname="Tree01.svg"
   inkscape:output_extension="org.inkscape.output.svg.inkscape"
   version="1.0">
  <defs
     id="defs4">
    <inkscape:perspective
       sodipodi:type="inkscape:persp3d"
       inkscape:vp_x="0 : 526.18109 : 1"
       inkscape:vp_y="0 : 1000 : 0"
       inkscape:vp_z="744.09448 : 526.18109 : 1"
       inkscape:persp3d-origin="372.04724 : 350.78739 : 1"
       id="perspective10" />
  </defs>
  <sodipodi:namedview
     id="base"
     pagecolor="#ffffff"
     bordercolor="#666666"
     borderopacity="1.0"
     gridtolerance="10000"
     guidetolerance="10"
     objecttolerance="10"
     inkscape:pageopacity="0.0"
     inkscape:pageshadow="2"
     inkscape:zoom="0.49497475"
     inkscape:cx="325.8481"
     inkscape:cy="447.0804"
     inkscape:document-units="px"
     inkscape:current-layer="layer1"
     showgrid="false"
     inkscape:window-width="1280"
     inkscape:window-height="752"
     inkscape:window-x="0"
     inkscape:window-y="0" />
  <metadata
     id="metadata7">
    <rdf:RDF>
      <cc:Work
         rdf:about="">
        <dc:format>image/svg+xml</dc:format>
        <dc:type
           rdf:resource="http://purl.org/dc/dcmitype/StillImage" />
      </cc:Work>
    </rdf:RDF>
  </metadata>
  <g
     inkscape:label="Layer 1"
     inkscape:groupmode="layer"
     id="layer1"
     transform="translate(-176.41581,-173.30951)">
    <path
       style="fill:#6a4018;fill-opacity:1;fill-rule:evenodd;stroke:#000000;stroke-width:1px;stroke-linecap:butt;stroke-linejoin:miter;stroke-opacity:1"
       d="M 113.14372,359.5625 C 113.14372,359.56249 260.62499,367.66404 242.44225,353.52189 C 224.25951,339.37974 195.95796,701.01269 229.29702,738.39221 C 260.10869,762.13274 253.34452,709.89069 296.35411,745.58763 C 340.97514,782.62203 301.03125,818.1875 301.03125,818.1875 C 301.03125,818.1875 68.3447,828.01967 28.28125,816.15625 C -11.7822,804.29283 16.923274,724.03082 54.974941,751.44844 C 80.886539,751.91295 105.09241,788.0636 125.25,735.34375 C 151.51397,666.65338 113.14372,359.56251 113.14372,359.5625 z"
       transform="translate(271.75134,161.42793)"
       id="path2410"
       sodipodi:nodetypes="cccscccsc" />
    <path
       style="fill:#47a100;fill-opacity:1;fill-rule:evenodd;stroke:none;stroke-width:1px;stroke-linecap:butt;stroke-linejoin:miter;stroke-opacity:1"
       d="M 189.90868,74.710689 C 233.14318,69.441405 288.31281,-1.4301077 305.06606,14.101537 C 321.81932,29.633182 230.40423,73.901524 256.57874,105.01527 C 282.75325,136.12902 392.41604,13.867857 416.18284,52.487334 C 439.94965,91.106811 309.81058,108.11615 321.22851,147.44167 C 332.64644,186.76719 451.27647,133.26717 456.58895,177.74625 C 461.90143,222.22533 314.9125,200.59297 313.14729,248.45693 C 311.38208,296.32089 459.71253,284.60732 450.52803,329.26913 C 441.34353,373.93094 334.37218,315.61818 317.1879,349.47218 C 300.00361,383.32617 385.50075,413.06982 359.6143,442.40621 C 333.72785,471.7426 253.9289,385.29161 218.19295,385.83767 C 182.457,386.38373 155.25652,430.56783 139.40105,420.18286 C 123.54558,409.79789 164.53098,397.88939 139.40105,379.77676 C 114.27112,361.66413 8.707316,469.04021 -18.182746,432.30469 C -45.072808,395.56917 79.663093,356.73793 62.629457,321.18791 C 45.595821,285.63789 -53.970369,352.34097 -62.629457,315.12699 C -71.288545,277.91301 6.1853153,291.54507 4.0406102,250.47723 C 1.8959052,209.4094 -85.677924,242.79491 -82.832508,195.92899 C -79.987092,149.06307 58.587218,212.55831 60.609152,159.56351 C 62.631086,106.5687 -104.33732,136.93484 -94.954339,84.812215 C -85.571356,32.689585 57.737544,115.80519 72.730983,84.812215 C 87.724422,53.819242 16.326482,64.341577 34.345186,36.324893 C 52.36389,8.3082091 146.67418,79.979973 189.90868,74.710689 z"
       id="path2408"
       transform="translate(271.75134,161.42793)"
       sodipodi:nodetypes="czzzzzzzzzzzzzzzzzzzzzz" />
  </g>
</svg>
